<svg xmlns="http://www.w3.org/2000/svg" viewBox="0 0 100 100" width="100" height="100">
  <!-- Head -->
  <rect x="20" y="15" width="60" height="40" rx="8" ry="8" fill="#ff6347"/>
  
  <!-- Eyes -->
  <circle cx="35" cy="35" r="6" fill="white"/>
  <circle cx="65" cy="35" r="6" fill="white"/>
  <circle cx="35" cy="35" r="3" fill="black"/>
  <circle cx="65" cy="35" r="3" fill="black"/>
  
  <!-- Mouth -->
  <path d="M30,50 Q50,60 70,50" stroke="white" stroke-width="3" fill="transparent"/>
  
  <!-- Antenna -->
  <line x1="50" y1="15" x2="50" y2="5" stroke="#ff6347" stroke-width="2"/>
  <circle cx="50" cy="5" r="3" fill="#ff6347"/>
  
  <!-- Body -->
  <rect x="30" y="55" width="40" height="30" rx="12" ry="12" fill="#ff6347"/>
  
  <!-- Arms -->
  <rect x="10" y="60" width="15" height="25" rx="8" ry="8" fill="#ff6347"/>
  <rect x="75" y="60" width="15" height="25" rx="8" ry="8" fill="#ff6347"/>
  
  <!-- Legs -->
  <rect x="35" y="85" width="10" height="10" rx="3" ry="3" fill="#ff6347"/>
  <rect x="55" y="85" width="10" height="10" rx="3" ry="3" fill="#ff6347"/>
</svg>
