<svg width="311" height="404" viewBox="0 0 311 404" fill="none" xmlns="http://www.w3.org/2000/svg">
<g opacity="0.05">
<path d="M13.0323 6.51613C13.0323 10.1149 10.1149 13.0323 6.51613 13.0323C2.91737 13.0323 0 10.1149 0 6.51613C0 2.91737 2.91737 0 6.51613 0C10.1149 0 13.0323 2.91737 13.0323 6.51613Z" fill="url(#paint0_linear_651_746)"/>
<path d="M52.129 6.51613C52.129 10.1149 49.2117 13.0323 45.6129 13.0323C42.0141 13.0323 39.0968 10.1149 39.0968 6.51613C39.0968 2.91737 42.0141 0 45.6129 0C49.2117 0 52.129 2.91737 52.129 6.51613Z" fill="url(#paint1_linear_651_746)"/>
<path d="M91.2258 6.51613C91.2258 10.1149 88.3084 13.0323 84.7097 13.0323C81.1109 13.0323 78.1936 10.1149 78.1936 6.51613C78.1936 2.91737 81.1109 0 84.7097 0C88.3084 0 91.2258 2.91737 91.2258 6.51613Z" fill="url(#paint2_linear_651_746)"/>
<path d="M130.323 6.51613C130.323 10.1149 127.405 13.0323 123.806 13.0323C120.208 13.0323 117.29 10.1149 117.29 6.51613C117.29 2.91737 120.208 0 123.806 0C127.405 0 130.323 2.91737 130.323 6.51613Z" fill="url(#paint3_linear_651_746)"/>
<path d="M169.419 6.51613C169.419 10.1149 166.502 13.0323 162.903 13.0323C159.304 13.0323 156.387 10.1149 156.387 6.51613C156.387 2.91737 159.304 0 162.903 0C166.502 0 169.419 2.91737 169.419 6.51613Z" fill="url(#paint4_linear_651_746)"/>
<path d="M208.516 6.51613C208.516 10.1149 205.599 13.0323 202 13.0323C198.401 13.0323 195.484 10.1149 195.484 6.51613C195.484 2.91737 198.401 0 202 0C205.599 0 208.516 2.91737 208.516 6.51613Z" fill="url(#paint5_linear_651_746)"/>
<path d="M247.613 6.51613C247.613 10.1149 244.696 13.0323 241.097 13.0323C237.498 13.0323 234.581 10.1149 234.581 6.51613C234.581 2.91737 237.498 0 241.097 0C244.696 0 247.613 2.91737 247.613 6.51613Z" fill="url(#paint6_linear_651_746)"/>
<path d="M286.71 6.51613C286.71 10.1149 283.792 13.0323 280.194 13.0323C276.595 13.0323 273.677 10.1149 273.677 6.51613C273.677 2.91737 276.595 0 280.194 0C283.792 0 286.71 2.91737 286.71 6.51613Z" fill="url(#paint7_linear_651_746)"/>
<path d="M325.806 6.51613C325.806 10.1149 322.889 13.0323 319.29 13.0323C315.692 13.0323 312.774 10.1149 312.774 6.51613C312.774 2.91737 315.692 0 319.29 0C322.889 0 325.806 2.91737 325.806 6.51613Z" fill="url(#paint8_linear_651_746)"/>
<path d="M364.903 6.51613C364.903 10.1149 361.986 13.0323 358.387 13.0323C354.788 13.0323 351.871 10.1149 351.871 6.51613C351.871 2.91737 354.788 0 358.387 0C361.986 0 364.903 2.91737 364.903 6.51613Z" fill="url(#paint9_linear_651_746)"/>
<path d="M404 6.51613C404 10.1149 401.083 13.0323 397.484 13.0323C393.885 13.0323 390.968 10.1149 390.968 6.51613C390.968 2.91737 393.885 0 397.484 0C401.083 0 404 2.91737 404 6.51613Z" fill="url(#paint10_linear_651_746)"/>
<path d="M13.0323 45.6129C13.0323 49.2117 10.1149 52.129 6.51613 52.129C2.91737 52.129 0 49.2117 0 45.6129C0 42.0141 2.91737 39.0968 6.51613 39.0968C10.1149 39.0968 13.0323 42.0141 13.0323 45.6129Z" fill="url(#paint11_linear_651_746)"/>
<path d="M52.129 45.6129C52.129 49.2117 49.2117 52.129 45.6129 52.129C42.0141 52.129 39.0968 49.2117 39.0968 45.6129C39.0968 42.0141 42.0141 39.0968 45.6129 39.0968C49.2117 39.0968 52.129 42.0141 52.129 45.6129Z" fill="url(#paint12_linear_651_746)"/>
<path d="M91.2258 45.6129C91.2258 49.2117 88.3084 52.129 84.7097 52.129C81.1109 52.129 78.1936 49.2117 78.1936 45.6129C78.1936 42.0141 81.1109 39.0968 84.7097 39.0968C88.3084 39.0968 91.2258 42.0141 91.2258 45.6129Z" fill="url(#paint13_linear_651_746)"/>
<path d="M130.323 45.6129C130.323 49.2117 127.405 52.129 123.806 52.129C120.208 52.129 117.29 49.2117 117.29 45.6129C117.29 42.0141 120.208 39.0968 123.806 39.0968C127.405 39.0968 130.323 42.0141 130.323 45.6129Z" fill="url(#paint14_linear_651_746)"/>
<path d="M169.419 45.6129C169.419 49.2117 166.502 52.129 162.903 52.129C159.304 52.129 156.387 49.2117 156.387 45.6129C156.387 42.0141 159.304 39.0968 162.903 39.0968C166.502 39.0968 169.419 42.0141 169.419 45.6129Z" fill="url(#paint15_linear_651_746)"/>
<path d="M208.516 45.6129C208.516 49.2117 205.599 52.129 202 52.129C198.401 52.129 195.484 49.2117 195.484 45.6129C195.484 42.0141 198.401 39.0968 202 39.0968C205.599 39.0968 208.516 42.0141 208.516 45.6129Z" fill="url(#paint16_linear_651_746)"/>
<path d="M247.613 45.6129C247.613 49.2117 244.696 52.129 241.097 52.129C237.498 52.129 234.581 49.2117 234.581 45.6129C234.581 42.0141 237.498 39.0968 241.097 39.0968C244.696 39.0968 247.613 42.0141 247.613 45.6129Z" fill="url(#paint17_linear_651_746)"/>
<path d="M286.71 45.6129C286.71 49.2117 283.792 52.129 280.194 52.129C276.595 52.129 273.677 49.2117 273.677 45.6129C273.677 42.0141 276.595 39.0968 280.194 39.0968C283.792 39.0968 286.71 42.0141 286.71 45.6129Z" fill="url(#paint18_linear_651_746)"/>
<path d="M325.806 45.6129C325.806 49.2117 322.889 52.129 319.29 52.129C315.692 52.129 312.774 49.2117 312.774 45.6129C312.774 42.0141 315.692 39.0968 319.29 39.0968C322.889 39.0968 325.806 42.0141 325.806 45.6129Z" fill="url(#paint19_linear_651_746)"/>
<path d="M364.903 45.6129C364.903 49.2117 361.986 52.129 358.387 52.129C354.788 52.129 351.871 49.2117 351.871 45.6129C351.871 42.0141 354.788 39.0968 358.387 39.0968C361.986 39.0968 364.903 42.0141 364.903 45.6129Z" fill="url(#paint20_linear_651_746)"/>
<path d="M404 45.6129C404 49.2117 401.083 52.129 397.484 52.129C393.885 52.129 390.968 49.2117 390.968 45.6129C390.968 42.0141 393.885 39.0968 397.484 39.0968C401.083 39.0968 404 42.0141 404 45.6129Z" fill="url(#paint21_linear_651_746)"/>
<path d="M13.0323 84.7097C13.0323 88.3084 10.1149 91.2258 6.51613 91.2258C2.91737 91.2258 0 88.3084 0 84.7097C0 81.1109 2.91737 78.1936 6.51613 78.1936C10.1149 78.1936 13.0323 81.1109 13.0323 84.7097Z" fill="url(#paint22_linear_651_746)"/>
<path d="M52.129 84.7097C52.129 88.3084 49.2117 91.2258 45.6129 91.2258C42.0141 91.2258 39.0968 88.3084 39.0968 84.7097C39.0968 81.1109 42.0141 78.1936 45.6129 78.1936C49.2117 78.1936 52.129 81.1109 52.129 84.7097Z" fill="url(#paint23_linear_651_746)"/>
<path d="M91.2258 84.7097C91.2258 88.3084 88.3084 91.2258 84.7097 91.2258C81.1109 91.2258 78.1936 88.3084 78.1936 84.7097C78.1936 81.1109 81.1109 78.1936 84.7097 78.1936C88.3084 78.1936 91.2258 81.1109 91.2258 84.7097Z" fill="url(#paint24_linear_651_746)"/>
<path d="M130.323 84.7097C130.323 88.3084 127.405 91.2258 123.806 91.2258C120.208 91.2258 117.29 88.3084 117.29 84.7097C117.29 81.1109 120.208 78.1936 123.806 78.1936C127.405 78.1936 130.323 81.1109 130.323 84.7097Z" fill="url(#paint25_linear_651_746)"/>
<path d="M169.419 84.7097C169.419 88.3084 166.502 91.2258 162.903 91.2258C159.304 91.2258 156.387 88.3084 156.387 84.7097C156.387 81.1109 159.304 78.1936 162.903 78.1936C166.502 78.1936 169.419 81.1109 169.419 84.7097Z" fill="url(#paint26_linear_651_746)"/>
<path d="M208.516 84.7097C208.516 88.3084 205.599 91.2258 202 91.2258C198.401 91.2258 195.484 88.3084 195.484 84.7097C195.484 81.1109 198.401 78.1936 202 78.1936C205.599 78.1936 208.516 81.1109 208.516 84.7097Z" fill="url(#paint27_linear_651_746)"/>
<path d="M247.613 84.7097C247.613 88.3084 244.696 91.2258 241.097 91.2258C237.498 91.2258 234.581 88.3084 234.581 84.7097C234.581 81.1109 237.498 78.1936 241.097 78.1936C244.696 78.1936 247.613 81.1109 247.613 84.7097Z" fill="url(#paint28_linear_651_746)"/>
<path d="M286.71 84.7097C286.71 88.3084 283.792 91.2258 280.194 91.2258C276.595 91.2258 273.677 88.3084 273.677 84.7097C273.677 81.1109 276.595 78.1936 280.194 78.1936C283.792 78.1936 286.71 81.1109 286.71 84.7097Z" fill="url(#paint29_linear_651_746)"/>
<path d="M325.806 84.7097C325.806 88.3084 322.889 91.2258 319.29 91.2258C315.692 91.2258 312.774 88.3084 312.774 84.7097C312.774 81.1109 315.692 78.1936 319.29 78.1936C322.889 78.1936 325.806 81.1109 325.806 84.7097Z" fill="url(#paint30_linear_651_746)"/>
<path d="M364.903 84.7097C364.903 88.3084 361.986 91.2258 358.387 91.2258C354.788 91.2258 351.871 88.3084 351.871 84.7097C351.871 81.1109 354.788 78.1936 358.387 78.1936C361.986 78.1936 364.903 81.1109 364.903 84.7097Z" fill="url(#paint31_linear_651_746)"/>
<path d="M404 84.7097C404 88.3084 401.083 91.2258 397.484 91.2258C393.885 91.2258 390.968 88.3084 390.968 84.7097C390.968 81.1109 393.885 78.1936 397.484 78.1936C401.083 78.1936 404 81.1109 404 84.7097Z" fill="url(#paint32_linear_651_746)"/>
<path d="M13.0323 123.806C13.0323 127.405 10.1149 130.323 6.51613 130.323C2.91737 130.323 0 127.405 0 123.806C0 120.208 2.91737 117.29 6.51613 117.29C10.1149 117.29 13.0323 120.208 13.0323 123.806Z" fill="url(#paint33_linear_651_746)"/>
<path d="M52.129 123.806C52.129 127.405 49.2117 130.323 45.6129 130.323C42.0141 130.323 39.0968 127.405 39.0968 123.806C39.0968 120.208 42.0141 117.29 45.6129 117.29C49.2117 117.29 52.129 120.208 52.129 123.806Z" fill="url(#paint34_linear_651_746)"/>
<path d="M91.2258 123.806C91.2258 127.405 88.3084 130.323 84.7097 130.323C81.1109 130.323 78.1936 127.405 78.1936 123.806C78.1936 120.208 81.1109 117.29 84.7097 117.29C88.3084 117.29 91.2258 120.208 91.2258 123.806Z" fill="url(#paint35_linear_651_746)"/>
<path d="M130.323 123.806C130.323 127.405 127.405 130.323 123.806 130.323C120.208 130.323 117.29 127.405 117.29 123.806C117.29 120.208 120.208 117.29 123.806 117.29C127.405 117.29 130.323 120.208 130.323 123.806Z" fill="url(#paint36_linear_651_746)"/>
<path d="M169.419 123.806C169.419 127.405 166.502 130.323 162.903 130.323C159.304 130.323 156.387 127.405 156.387 123.806C156.387 120.208 159.304 117.29 162.903 117.29C166.502 117.29 169.419 120.208 169.419 123.806Z" fill="url(#paint37_linear_651_746)"/>
<path d="M208.516 123.806C208.516 127.405 205.599 130.323 202 130.323C198.401 130.323 195.484 127.405 195.484 123.806C195.484 120.208 198.401 117.29 202 117.29C205.599 117.29 208.516 120.208 208.516 123.806Z" fill="url(#paint38_linear_651_746)"/>
<path d="M247.613 123.806C247.613 127.405 244.696 130.323 241.097 130.323C237.498 130.323 234.581 127.405 234.581 123.806C234.581 120.208 237.498 117.29 241.097 117.29C244.696 117.29 247.613 120.208 247.613 123.806Z" fill="url(#paint39_linear_651_746)"/>
<path d="M286.71 123.806C286.71 127.405 283.792 130.323 280.194 130.323C276.595 130.323 273.677 127.405 273.677 123.806C273.677 120.208 276.595 117.29 280.194 117.29C283.792 117.29 286.71 120.208 286.71 123.806Z" fill="url(#paint40_linear_651_746)"/>
<path d="M325.806 123.806C325.806 127.405 322.889 130.323 319.29 130.323C315.692 130.323 312.774 127.405 312.774 123.806C312.774 120.208 315.692 117.29 319.29 117.29C322.889 117.29 325.806 120.208 325.806 123.806Z" fill="url(#paint41_linear_651_746)"/>
<path d="M364.903 123.806C364.903 127.405 361.986 130.323 358.387 130.323C354.788 130.323 351.871 127.405 351.871 123.806C351.871 120.208 354.788 117.29 358.387 117.29C361.986 117.29 364.903 120.208 364.903 123.806Z" fill="url(#paint42_linear_651_746)"/>
<path d="M404 123.806C404 127.405 401.083 130.323 397.484 130.323C393.885 130.323 390.968 127.405 390.968 123.806C390.968 120.208 393.885 117.29 397.484 117.29C401.083 117.29 404 120.208 404 123.806Z" fill="url(#paint43_linear_651_746)"/>
<path d="M13.0323 162.903C13.0323 166.502 10.1149 169.419 6.51613 169.419C2.91737 169.419 0 166.502 0 162.903C0 159.304 2.91737 156.387 6.51613 156.387C10.1149 156.387 13.0323 159.304 13.0323 162.903Z" fill="url(#paint44_linear_651_746)"/>
<path d="M52.129 162.903C52.129 166.502 49.2117 169.419 45.6129 169.419C42.0141 169.419 39.0968 166.502 39.0968 162.903C39.0968 159.304 42.0141 156.387 45.6129 156.387C49.2117 156.387 52.129 159.304 52.129 162.903Z" fill="url(#paint45_linear_651_746)"/>
<path d="M91.2258 162.903C91.2258 166.502 88.3084 169.419 84.7097 169.419C81.1109 169.419 78.1936 166.502 78.1936 162.903C78.1936 159.304 81.1109 156.387 84.7097 156.387C88.3084 156.387 91.2258 159.304 91.2258 162.903Z" fill="url(#paint46_linear_651_746)"/>
<path d="M130.323 162.903C130.323 166.502 127.405 169.419 123.806 169.419C120.208 169.419 117.29 166.502 117.29 162.903C117.29 159.304 120.208 156.387 123.806 156.387C127.405 156.387 130.323 159.304 130.323 162.903Z" fill="url(#paint47_linear_651_746)"/>
<path d="M169.419 162.903C169.419 166.502 166.502 169.419 162.903 169.419C159.304 169.419 156.387 166.502 156.387 162.903C156.387 159.304 159.304 156.387 162.903 156.387C166.502 156.387 169.419 159.304 169.419 162.903Z" fill="url(#paint48_linear_651_746)"/>
<path d="M208.516 162.903C208.516 166.502 205.599 169.419 202 169.419C198.401 169.419 195.484 166.502 195.484 162.903C195.484 159.304 198.401 156.387 202 156.387C205.599 156.387 208.516 159.304 208.516 162.903Z" fill="url(#paint49_linear_651_746)"/>
<path d="M247.613 162.903C247.613 166.502 244.696 169.419 241.097 169.419C237.498 169.419 234.581 166.502 234.581 162.903C234.581 159.304 237.498 156.387 241.097 156.387C244.696 156.387 247.613 159.304 247.613 162.903Z" fill="url(#paint50_linear_651_746)"/>
<path d="M286.71 162.903C286.71 166.502 283.792 169.419 280.194 169.419C276.595 169.419 273.677 166.502 273.677 162.903C273.677 159.304 276.595 156.387 280.194 156.387C283.792 156.387 286.71 159.304 286.71 162.903Z" fill="url(#paint51_linear_651_746)"/>
<path d="M325.806 162.903C325.806 166.502 322.889 169.419 319.29 169.419C315.692 169.419 312.774 166.502 312.774 162.903C312.774 159.304 315.692 156.387 319.29 156.387C322.889 156.387 325.806 159.304 325.806 162.903Z" fill="url(#paint52_linear_651_746)"/>
<path d="M364.903 162.903C364.903 166.502 361.986 169.419 358.387 169.419C354.788 169.419 351.871 166.502 351.871 162.903C351.871 159.304 354.788 156.387 358.387 156.387C361.986 156.387 364.903 159.304 364.903 162.903Z" fill="url(#paint53_linear_651_746)"/>
<path d="M404 162.903C404 166.502 401.083 169.419 397.484 169.419C393.885 169.419 390.968 166.502 390.968 162.903C390.968 159.304 393.885 156.387 397.484 156.387C401.083 156.387 404 159.304 404 162.903Z" fill="url(#paint54_linear_651_746)"/>
<path d="M13.0323 202C13.0323 205.599 10.1149 208.516 6.51613 208.516C2.91737 208.516 0 205.599 0 202C0 198.401 2.91737 195.484 6.51613 195.484C10.1149 195.484 13.0323 198.401 13.0323 202Z" fill="url(#paint55_linear_651_746)"/>
<path d="M52.129 202C52.129 205.599 49.2117 208.516 45.6129 208.516C42.0141 208.516 39.0968 205.599 39.0968 202C39.0968 198.401 42.0141 195.484 45.6129 195.484C49.2117 195.484 52.129 198.401 52.129 202Z" fill="url(#paint56_linear_651_746)"/>
<path d="M91.2258 202C91.2258 205.599 88.3084 208.516 84.7097 208.516C81.1109 208.516 78.1936 205.599 78.1936 202C78.1936 198.401 81.1109 195.484 84.7097 195.484C88.3084 195.484 91.2258 198.401 91.2258 202Z" fill="url(#paint57_linear_651_746)"/>
<path d="M130.323 202C130.323 205.599 127.405 208.516 123.806 208.516C120.208 208.516 117.29 205.599 117.29 202C117.29 198.401 120.208 195.484 123.806 195.484C127.405 195.484 130.323 198.401 130.323 202Z" fill="url(#paint58_linear_651_746)"/>
<path d="M169.419 202C169.419 205.599 166.502 208.516 162.903 208.516C159.304 208.516 156.387 205.599 156.387 202C156.387 198.401 159.304 195.484 162.903 195.484C166.502 195.484 169.419 198.401 169.419 202Z" fill="url(#paint59_linear_651_746)"/>
<path d="M208.516 202C208.516 205.599 205.599 208.516 202 208.516C198.401 208.516 195.484 205.599 195.484 202C195.484 198.401 198.401 195.484 202 195.484C205.599 195.484 208.516 198.401 208.516 202Z" fill="url(#paint60_linear_651_746)"/>
<path d="M247.613 202C247.613 205.599 244.696 208.516 241.097 208.516C237.498 208.516 234.581 205.599 234.581 202C234.581 198.401 237.498 195.484 241.097 195.484C244.696 195.484 247.613 198.401 247.613 202Z" fill="url(#paint61_linear_651_746)"/>
<path d="M286.71 202C286.71 205.599 283.792 208.516 280.194 208.516C276.595 208.516 273.677 205.599 273.677 202C273.677 198.401 276.595 195.484 280.194 195.484C283.792 195.484 286.71 198.401 286.71 202Z" fill="url(#paint62_linear_651_746)"/>
<path d="M325.806 202C325.806 205.599 322.889 208.516 319.29 208.516C315.692 208.516 312.774 205.599 312.774 202C312.774 198.401 315.692 195.484 319.29 195.484C322.889 195.484 325.806 198.401 325.806 202Z" fill="url(#paint63_linear_651_746)"/>
<path d="M364.903 202C364.903 205.599 361.986 208.516 358.387 208.516C354.788 208.516 351.871 205.599 351.871 202C351.871 198.401 354.788 195.484 358.387 195.484C361.986 195.484 364.903 198.401 364.903 202Z" fill="url(#paint64_linear_651_746)"/>
<path d="M404 202C404 205.599 401.083 208.516 397.484 208.516C393.885 208.516 390.968 205.599 390.968 202C390.968 198.401 393.885 195.484 397.484 195.484C401.083 195.484 404 198.401 404 202Z" fill="url(#paint65_linear_651_746)"/>
<path d="M13.0323 241.097C13.0323 244.696 10.1149 247.613 6.51613 247.613C2.91737 247.613 0 244.696 0 241.097C0 237.498 2.91737 234.581 6.51613 234.581C10.1149 234.581 13.0323 237.498 13.0323 241.097Z" fill="url(#paint66_linear_651_746)"/>
<path d="M52.129 241.097C52.129 244.696 49.2117 247.613 45.6129 247.613C42.0141 247.613 39.0968 244.696 39.0968 241.097C39.0968 237.498 42.0141 234.581 45.6129 234.581C49.2117 234.581 52.129 237.498 52.129 241.097Z" fill="url(#paint67_linear_651_746)"/>
<path d="M91.2258 241.097C91.2258 244.696 88.3084 247.613 84.7097 247.613C81.1109 247.613 78.1936 244.696 78.1936 241.097C78.1936 237.498 81.1109 234.581 84.7097 234.581C88.3084 234.581 91.2258 237.498 91.2258 241.097Z" fill="url(#paint68_linear_651_746)"/>
<path d="M130.323 241.097C130.323 244.696 127.405 247.613 123.806 247.613C120.208 247.613 117.29 244.696 117.29 241.097C117.29 237.498 120.208 234.581 123.806 234.581C127.405 234.581 130.323 237.498 130.323 241.097Z" fill="url(#paint69_linear_651_746)"/>
<path d="M169.419 241.097C169.419 244.696 166.502 247.613 162.903 247.613C159.304 247.613 156.387 244.696 156.387 241.097C156.387 237.498 159.304 234.581 162.903 234.581C166.502 234.581 169.419 237.498 169.419 241.097Z" fill="url(#paint70_linear_651_746)"/>
<path d="M208.516 241.097C208.516 244.696 205.599 247.613 202 247.613C198.401 247.613 195.484 244.696 195.484 241.097C195.484 237.498 198.401 234.581 202 234.581C205.599 234.581 208.516 237.498 208.516 241.097Z" fill="url(#paint71_linear_651_746)"/>
<path d="M247.613 241.097C247.613 244.696 244.696 247.613 241.097 247.613C237.498 247.613 234.581 244.696 234.581 241.097C234.581 237.498 237.498 234.581 241.097 234.581C244.696 234.581 247.613 237.498 247.613 241.097Z" fill="url(#paint72_linear_651_746)"/>
<path d="M286.71 241.097C286.71 244.696 283.792 247.613 280.194 247.613C276.595 247.613 273.677 244.696 273.677 241.097C273.677 237.498 276.595 234.581 280.194 234.581C283.792 234.581 286.71 237.498 286.71 241.097Z" fill="url(#paint73_linear_651_746)"/>
<path d="M325.806 241.097C325.806 244.696 322.889 247.613 319.29 247.613C315.692 247.613 312.774 244.696 312.774 241.097C312.774 237.498 315.692 234.581 319.29 234.581C322.889 234.581 325.806 237.498 325.806 241.097Z" fill="url(#paint74_linear_651_746)"/>
<path d="M364.903 241.097C364.903 244.696 361.986 247.613 358.387 247.613C354.788 247.613 351.871 244.696 351.871 241.097C351.871 237.498 354.788 234.581 358.387 234.581C361.986 234.581 364.903 237.498 364.903 241.097Z" fill="url(#paint75_linear_651_746)"/>
<path d="M404 241.097C404 244.696 401.083 247.613 397.484 247.613C393.885 247.613 390.968 244.696 390.968 241.097C390.968 237.498 393.885 234.581 397.484 234.581C401.083 234.581 404 237.498 404 241.097Z" fill="url(#paint76_linear_651_746)"/>
<path d="M13.0323 280.194C13.0323 283.792 10.1149 286.71 6.51613 286.71C2.91737 286.71 0 283.792 0 280.194C0 276.595 2.91737 273.677 6.51613 273.677C10.1149 273.677 13.0323 276.595 13.0323 280.194Z" fill="url(#paint77_linear_651_746)"/>
<path d="M52.129 280.194C52.129 283.792 49.2117 286.71 45.6129 286.71C42.0141 286.71 39.0968 283.792 39.0968 280.194C39.0968 276.595 42.0141 273.677 45.6129 273.677C49.2117 273.677 52.129 276.595 52.129 280.194Z" fill="url(#paint78_linear_651_746)"/>
<path d="M91.2258 280.194C91.2258 283.792 88.3084 286.71 84.7097 286.71C81.1109 286.71 78.1936 283.792 78.1936 280.194C78.1936 276.595 81.1109 273.677 84.7097 273.677C88.3084 273.677 91.2258 276.595 91.2258 280.194Z" fill="url(#paint79_linear_651_746)"/>
<path d="M130.323 280.194C130.323 283.792 127.405 286.71 123.806 286.71C120.208 286.71 117.29 283.792 117.29 280.194C117.29 276.595 120.208 273.677 123.806 273.677C127.405 273.677 130.323 276.595 130.323 280.194Z" fill="url(#paint80_linear_651_746)"/>
<path d="M169.419 280.194C169.419 283.792 166.502 286.71 162.903 286.71C159.304 286.71 156.387 283.792 156.387 280.194C156.387 276.595 159.304 273.677 162.903 273.677C166.502 273.677 169.419 276.595 169.419 280.194Z" fill="url(#paint81_linear_651_746)"/>
<path d="M208.516 280.194C208.516 283.792 205.599 286.71 202 286.71C198.401 286.71 195.484 283.792 195.484 280.194C195.484 276.595 198.401 273.677 202 273.677C205.599 273.677 208.516 276.595 208.516 280.194Z" fill="url(#paint82_linear_651_746)"/>
<path d="M247.613 280.194C247.613 283.792 244.696 286.71 241.097 286.71C237.498 286.71 234.581 283.792 234.581 280.194C234.581 276.595 237.498 273.677 241.097 273.677C244.696 273.677 247.613 276.595 247.613 280.194Z" fill="url(#paint83_linear_651_746)"/>
<path d="M286.71 280.194C286.71 283.792 283.792 286.71 280.194 286.71C276.595 286.71 273.677 283.792 273.677 280.194C273.677 276.595 276.595 273.677 280.194 273.677C283.792 273.677 286.71 276.595 286.71 280.194Z" fill="url(#paint84_linear_651_746)"/>
<path d="M325.806 280.194C325.806 283.792 322.889 286.71 319.29 286.71C315.692 286.71 312.774 283.792 312.774 280.194C312.774 276.595 315.692 273.677 319.29 273.677C322.889 273.677 325.806 276.595 325.806 280.194Z" fill="url(#paint85_linear_651_746)"/>
<path d="M364.903 280.194C364.903 283.792 361.986 286.71 358.387 286.71C354.788 286.71 351.871 283.792 351.871 280.194C351.871 276.595 354.788 273.677 358.387 273.677C361.986 273.677 364.903 276.595 364.903 280.194Z" fill="url(#paint86_linear_651_746)"/>
<path d="M404 280.194C404 283.792 401.083 286.71 397.484 286.71C393.885 286.71 390.968 283.792 390.968 280.194C390.968 276.595 393.885 273.677 397.484 273.677C401.083 273.677 404 276.595 404 280.194Z" fill="url(#paint87_linear_651_746)"/>
<path d="M13.0323 319.29C13.0323 322.889 10.1149 325.806 6.51613 325.806C2.91737 325.806 0 322.889 0 319.29C0 315.692 2.91737 312.774 6.51613 312.774C10.1149 312.774 13.0323 315.692 13.0323 319.29Z" fill="url(#paint88_linear_651_746)"/>
<path d="M52.129 319.29C52.129 322.889 49.2117 325.806 45.6129 325.806C42.0141 325.806 39.0968 322.889 39.0968 319.29C39.0968 315.692 42.0141 312.774 45.6129 312.774C49.2117 312.774 52.129 315.692 52.129 319.29Z" fill="url(#paint89_linear_651_746)"/>
<path d="M91.2258 319.29C91.2258 322.889 88.3084 325.806 84.7097 325.806C81.1109 325.806 78.1936 322.889 78.1936 319.29C78.1936 315.692 81.1109 312.774 84.7097 312.774C88.3084 312.774 91.2258 315.692 91.2258 319.29Z" fill="url(#paint90_linear_651_746)"/>
<path d="M130.323 319.29C130.323 322.889 127.405 325.806 123.806 325.806C120.208 325.806 117.29 322.889 117.29 319.29C117.29 315.692 120.208 312.774 123.806 312.774C127.405 312.774 130.323 315.692 130.323 319.29Z" fill="url(#paint91_linear_651_746)"/>
<path d="M169.419 319.29C169.419 322.889 166.502 325.806 162.903 325.806C159.304 325.806 156.387 322.889 156.387 319.29C156.387 315.692 159.304 312.774 162.903 312.774C166.502 312.774 169.419 315.692 169.419 319.29Z" fill="url(#paint92_linear_651_746)"/>
<path d="M208.516 319.29C208.516 322.889 205.599 325.806 202 325.806C198.401 325.806 195.484 322.889 195.484 319.29C195.484 315.692 198.401 312.774 202 312.774C205.599 312.774 208.516 315.692 208.516 319.29Z" fill="url(#paint93_linear_651_746)"/>
<path d="M247.613 319.29C247.613 322.889 244.696 325.806 241.097 325.806C237.498 325.806 234.581 322.889 234.581 319.29C234.581 315.692 237.498 312.774 241.097 312.774C244.696 312.774 247.613 315.692 247.613 319.29Z" fill="url(#paint94_linear_651_746)"/>
<path d="M286.71 319.29C286.71 322.889 283.792 325.806 280.194 325.806C276.595 325.806 273.677 322.889 273.677 319.29C273.677 315.692 276.595 312.774 280.194 312.774C283.792 312.774 286.71 315.692 286.71 319.29Z" fill="url(#paint95_linear_651_746)"/>
<path d="M325.806 319.29C325.806 322.889 322.889 325.806 319.29 325.806C315.692 325.806 312.774 322.889 312.774 319.29C312.774 315.692 315.692 312.774 319.29 312.774C322.889 312.774 325.806 315.692 325.806 319.29Z" fill="url(#paint96_linear_651_746)"/>
<path d="M364.903 319.29C364.903 322.889 361.986 325.806 358.387 325.806C354.788 325.806 351.871 322.889 351.871 319.29C351.871 315.692 354.788 312.774 358.387 312.774C361.986 312.774 364.903 315.692 364.903 319.29Z" fill="url(#paint97_linear_651_746)"/>
<path d="M404 319.29C404 322.889 401.083 325.806 397.484 325.806C393.885 325.806 390.968 322.889 390.968 319.29C390.968 315.692 393.885 312.774 397.484 312.774C401.083 312.774 404 315.692 404 319.29Z" fill="url(#paint98_linear_651_746)"/>
<path d="M13.0323 358.387C13.0323 361.986 10.1149 364.903 6.51613 364.903C2.91737 364.903 0 361.986 0 358.387C0 354.788 2.91737 351.871 6.51613 351.871C10.1149 351.871 13.0323 354.788 13.0323 358.387Z" fill="url(#paint99_linear_651_746)"/>
<path d="M52.129 358.387C52.129 361.986 49.2117 364.903 45.6129 364.903C42.0141 364.903 39.0968 361.986 39.0968 358.387C39.0968 354.788 42.0141 351.871 45.6129 351.871C49.2117 351.871 52.129 354.788 52.129 358.387Z" fill="url(#paint100_linear_651_746)"/>
<path d="M91.2258 358.387C91.2258 361.986 88.3084 364.903 84.7097 364.903C81.1109 364.903 78.1936 361.986 78.1936 358.387C78.1936 354.788 81.1109 351.871 84.7097 351.871C88.3084 351.871 91.2258 354.788 91.2258 358.387Z" fill="url(#paint101_linear_651_746)"/>
<path d="M130.323 358.387C130.323 361.986 127.405 364.903 123.806 364.903C120.208 364.903 117.29 361.986 117.29 358.387C117.29 354.788 120.208 351.871 123.806 351.871C127.405 351.871 130.323 354.788 130.323 358.387Z" fill="url(#paint102_linear_651_746)"/>
<path d="M169.419 358.387C169.419 361.986 166.502 364.903 162.903 364.903C159.304 364.903 156.387 361.986 156.387 358.387C156.387 354.788 159.304 351.871 162.903 351.871C166.502 351.871 169.419 354.788 169.419 358.387Z" fill="url(#paint103_linear_651_746)"/>
<path d="M208.516 358.387C208.516 361.986 205.599 364.903 202 364.903C198.401 364.903 195.484 361.986 195.484 358.387C195.484 354.788 198.401 351.871 202 351.871C205.599 351.871 208.516 354.788 208.516 358.387Z" fill="url(#paint104_linear_651_746)"/>
<path d="M247.613 358.387C247.613 361.986 244.696 364.903 241.097 364.903C237.498 364.903 234.581 361.986 234.581 358.387C234.581 354.788 237.498 351.871 241.097 351.871C244.696 351.871 247.613 354.788 247.613 358.387Z" fill="url(#paint105_linear_651_746)"/>
<path d="M286.71 358.387C286.71 361.986 283.792 364.903 280.194 364.903C276.595 364.903 273.677 361.986 273.677 358.387C273.677 354.788 276.595 351.871 280.194 351.871C283.792 351.871 286.71 354.788 286.71 358.387Z" fill="url(#paint106_linear_651_746)"/>
<path d="M325.806 358.387C325.806 361.986 322.889 364.903 319.29 364.903C315.692 364.903 312.774 361.986 312.774 358.387C312.774 354.788 315.692 351.871 319.29 351.871C322.889 351.871 325.806 354.788 325.806 358.387Z" fill="url(#paint107_linear_651_746)"/>
<path d="M364.903 358.387C364.903 361.986 361.986 364.903 358.387 364.903C354.788 364.903 351.871 361.986 351.871 358.387C351.871 354.788 354.788 351.871 358.387 351.871C361.986 351.871 364.903 354.788 364.903 358.387Z" fill="url(#paint108_linear_651_746)"/>
<path d="M404 358.387C404 361.986 401.083 364.903 397.484 364.903C393.885 364.903 390.968 361.986 390.968 358.387C390.968 354.788 393.885 351.871 397.484 351.871C401.083 351.871 404 354.788 404 358.387Z" fill="url(#paint109_linear_651_746)"/>
<path d="M13.0323 397.484C13.0323 401.083 10.1149 404 6.51613 404C2.91737 404 0 401.083 0 397.484C0 393.885 2.91737 390.968 6.51613 390.968C10.1149 390.968 13.0323 393.885 13.0323 397.484Z" fill="url(#paint110_linear_651_746)"/>
<path d="M52.129 397.484C52.129 401.083 49.2117 404 45.6129 404C42.0141 404 39.0968 401.083 39.0968 397.484C39.0968 393.885 42.0141 390.968 45.6129 390.968C49.2117 390.968 52.129 393.885 52.129 397.484Z" fill="url(#paint111_linear_651_746)"/>
<path d="M91.2258 397.484C91.2258 401.083 88.3084 404 84.7097 404C81.1109 404 78.1936 401.083 78.1936 397.484C78.1936 393.885 81.1109 390.968 84.7097 390.968C88.3084 390.968 91.2258 393.885 91.2258 397.484Z" fill="url(#paint112_linear_651_746)"/>
<path d="M130.323 397.484C130.323 401.083 127.405 404 123.806 404C120.208 404 117.29 401.083 117.29 397.484C117.29 393.885 120.208 390.968 123.806 390.968C127.405 390.968 130.323 393.885 130.323 397.484Z" fill="url(#paint113_linear_651_746)"/>
<path d="M169.419 397.484C169.419 401.083 166.502 404 162.903 404C159.304 404 156.387 401.083 156.387 397.484C156.387 393.885 159.304 390.968 162.903 390.968C166.502 390.968 169.419 393.885 169.419 397.484Z" fill="url(#paint114_linear_651_746)"/>
<path d="M208.516 397.484C208.516 401.083 205.599 404 202 404C198.401 404 195.484 401.083 195.484 397.484C195.484 393.885 198.401 390.968 202 390.968C205.599 390.968 208.516 393.885 208.516 397.484Z" fill="url(#paint115_linear_651_746)"/>
<path d="M247.613 397.484C247.613 401.083 244.696 404 241.097 404C237.498 404 234.581 401.083 234.581 397.484C234.581 393.885 237.498 390.968 241.097 390.968C244.696 390.968 247.613 393.885 247.613 397.484Z" fill="url(#paint116_linear_651_746)"/>
<path d="M286.71 397.484C286.71 401.083 283.792 404 280.194 404C276.595 404 273.677 401.083 273.677 397.484C273.677 393.885 276.595 390.968 280.194 390.968C283.792 390.968 286.71 393.885 286.71 397.484Z" fill="url(#paint117_linear_651_746)"/>
<path d="M325.806 397.484C325.806 401.083 322.889 404 319.29 404C315.692 404 312.774 401.083 312.774 397.484C312.774 393.885 315.692 390.968 319.29 390.968C322.889 390.968 325.806 393.885 325.806 397.484Z" fill="url(#paint118_linear_651_746)"/>
<path d="M364.903 397.484C364.903 401.083 361.986 404 358.387 404C354.788 404 351.871 401.083 351.871 397.484C351.871 393.885 354.788 390.968 358.387 390.968C361.986 390.968 364.903 393.885 364.903 397.484Z" fill="url(#paint119_linear_651_746)"/>
<path d="M404 397.484C404 401.083 401.083 404 397.484 404C393.885 404 390.968 401.083 390.968 397.484C390.968 393.885 393.885 390.968 397.484 390.968C401.083 390.968 404 393.885 404 397.484Z" fill="url(#paint120_linear_651_746)"/>
</g>
<defs>
<linearGradient id="paint0_linear_651_746" x1="397.484" y1="390.968" x2="397.484" y2="404" gradientUnits="userSpaceOnUse">
<stop stop-color="#3B4497"/>
<stop offset="1" stop-color="#131631"/>
</linearGradient>
<linearGradient id="paint1_linear_651_746" x1="397.484" y1="390.968" x2="397.484" y2="404" gradientUnits="userSpaceOnUse">
<stop stop-color="#3B4497"/>
<stop offset="1" stop-color="#131631"/>
</linearGradient>
<linearGradient id="paint2_linear_651_746" x1="397.484" y1="390.968" x2="397.484" y2="404" gradientUnits="userSpaceOnUse">
<stop stop-color="#3B4497"/>
<stop offset="1" stop-color="#131631"/>
</linearGradient>
<linearGradient id="paint3_linear_651_746" x1="397.484" y1="390.968" x2="397.484" y2="404" gradientUnits="userSpaceOnUse">
<stop stop-color="#3B4497"/>
<stop offset="1" stop-color="#131631"/>
</linearGradient>
<linearGradient id="paint4_linear_651_746" x1="397.484" y1="390.968" x2="397.484" y2="404" gradientUnits="userSpaceOnUse">
<stop stop-color="#3B4497"/>
<stop offset="1" stop-color="#131631"/>
</linearGradient>
<linearGradient id="paint5_linear_651_746" x1="397.484" y1="390.968" x2="397.484" y2="404" gradientUnits="userSpaceOnUse">
<stop stop-color="#3B4497"/>
<stop offset="1" stop-color="#131631"/>
</linearGradient>
<linearGradient id="paint6_linear_651_746" x1="397.484" y1="390.968" x2="397.484" y2="404" gradientUnits="userSpaceOnUse">
<stop stop-color="#3B4497"/>
<stop offset="1" stop-color="#131631"/>
</linearGradient>
<linearGradient id="paint7_linear_651_746" x1="397.484" y1="390.968" x2="397.484" y2="404" gradientUnits="userSpaceOnUse">
<stop stop-color="#3B4497"/>
<stop offset="1" stop-color="#131631"/>
</linearGradient>
<linearGradient id="paint8_linear_651_746" x1="397.484" y1="390.968" x2="397.484" y2="404" gradientUnits="userSpaceOnUse">
<stop stop-color="#3B4497"/>
<stop offset="1" stop-color="#131631"/>
</linearGradient>
<linearGradient id="paint9_linear_651_746" x1="397.484" y1="390.968" x2="397.484" y2="404" gradientUnits="userSpaceOnUse">
<stop stop-color="#3B4497"/>
<stop offset="1" stop-color="#131631"/>
</linearGradient>
<linearGradient id="paint10_linear_651_746" x1="397.484" y1="390.968" x2="397.484" y2="404" gradientUnits="userSpaceOnUse">
<stop stop-color="#3B4497"/>
<stop offset="1" stop-color="#131631"/>
</linearGradient>
<linearGradient id="paint11_linear_651_746" x1="397.484" y1="390.968" x2="397.484" y2="404" gradientUnits="userSpaceOnUse">
<stop stop-color="#3B4497"/>
<stop offset="1" stop-color="#131631"/>
</linearGradient>
<linearGradient id="paint12_linear_651_746" x1="397.484" y1="390.968" x2="397.484" y2="404" gradientUnits="userSpaceOnUse">
<stop stop-color="#3B4497"/>
<stop offset="1" stop-color="#131631"/>
</linearGradient>
<linearGradient id="paint13_linear_651_746" x1="397.484" y1="390.968" x2="397.484" y2="404" gradientUnits="userSpaceOnUse">
<stop stop-color="#3B4497"/>
<stop offset="1" stop-color="#131631"/>
</linearGradient>
<linearGradient id="paint14_linear_651_746" x1="397.484" y1="390.968" x2="397.484" y2="404" gradientUnits="userSpaceOnUse">
<stop stop-color="#3B4497"/>
<stop offset="1" stop-color="#131631"/>
</linearGradient>
<linearGradient id="paint15_linear_651_746" x1="397.484" y1="390.968" x2="397.484" y2="404" gradientUnits="userSpaceOnUse">
<stop stop-color="#3B4497"/>
<stop offset="1" stop-color="#131631"/>
</linearGradient>
<linearGradient id="paint16_linear_651_746" x1="397.484" y1="390.968" x2="397.484" y2="404" gradientUnits="userSpaceOnUse">
<stop stop-color="#3B4497"/>
<stop offset="1" stop-color="#131631"/>
</linearGradient>
<linearGradient id="paint17_linear_651_746" x1="397.484" y1="390.968" x2="397.484" y2="404" gradientUnits="userSpaceOnUse">
<stop stop-color="#3B4497"/>
<stop offset="1" stop-color="#131631"/>
</linearGradient>
<linearGradient id="paint18_linear_651_746" x1="397.484" y1="390.968" x2="397.484" y2="404" gradientUnits="userSpaceOnUse">
<stop stop-color="#3B4497"/>
<stop offset="1" stop-color="#131631"/>
</linearGradient>
<linearGradient id="paint19_linear_651_746" x1="397.484" y1="390.968" x2="397.484" y2="404" gradientUnits="userSpaceOnUse">
<stop stop-color="#3B4497"/>
<stop offset="1" stop-color="#131631"/>
</linearGradient>
<linearGradient id="paint20_linear_651_746" x1="397.484" y1="390.968" x2="397.484" y2="404" gradientUnits="userSpaceOnUse">
<stop stop-color="#3B4497"/>
<stop offset="1" stop-color="#131631"/>
</linearGradient>
<linearGradient id="paint21_linear_651_746" x1="397.484" y1="390.968" x2="397.484" y2="404" gradientUnits="userSpaceOnUse">
<stop stop-color="#3B4497"/>
<stop offset="1" stop-color="#131631"/>
</linearGradient>
<linearGradient id="paint22_linear_651_746" x1="397.484" y1="390.968" x2="397.484" y2="404" gradientUnits="userSpaceOnUse">
<stop stop-color="#3B4497"/>
<stop offset="1" stop-color="#131631"/>
</linearGradient>
<linearGradient id="paint23_linear_651_746" x1="397.484" y1="390.968" x2="397.484" y2="404" gradientUnits="userSpaceOnUse">
<stop stop-color="#3B4497"/>
<stop offset="1" stop-color="#131631"/>
</linearGradient>
<linearGradient id="paint24_linear_651_746" x1="397.484" y1="390.968" x2="397.484" y2="404" gradientUnits="userSpaceOnUse">
<stop stop-color="#3B4497"/>
<stop offset="1" stop-color="#131631"/>
</linearGradient>
<linearGradient id="paint25_linear_651_746" x1="397.484" y1="390.968" x2="397.484" y2="404" gradientUnits="userSpaceOnUse">
<stop stop-color="#3B4497"/>
<stop offset="1" stop-color="#131631"/>
</linearGradient>
<linearGradient id="paint26_linear_651_746" x1="397.484" y1="390.968" x2="397.484" y2="404" gradientUnits="userSpaceOnUse">
<stop stop-color="#3B4497"/>
<stop offset="1" stop-color="#131631"/>
</linearGradient>
<linearGradient id="paint27_linear_651_746" x1="397.484" y1="390.968" x2="397.484" y2="404" gradientUnits="userSpaceOnUse">
<stop stop-color="#3B4497"/>
<stop offset="1" stop-color="#131631"/>
</linearGradient>
<linearGradient id="paint28_linear_651_746" x1="397.484" y1="390.968" x2="397.484" y2="404" gradientUnits="userSpaceOnUse">
<stop stop-color="#3B4497"/>
<stop offset="1" stop-color="#131631"/>
</linearGradient>
<linearGradient id="paint29_linear_651_746" x1="397.484" y1="390.968" x2="397.484" y2="404" gradientUnits="userSpaceOnUse">
<stop stop-color="#3B4497"/>
<stop offset="1" stop-color="#131631"/>
</linearGradient>
<linearGradient id="paint30_linear_651_746" x1="397.484" y1="390.968" x2="397.484" y2="404" gradientUnits="userSpaceOnUse">
<stop stop-color="#3B4497"/>
<stop offset="1" stop-color="#131631"/>
</linearGradient>
<linearGradient id="paint31_linear_651_746" x1="397.484" y1="390.968" x2="397.484" y2="404" gradientUnits="userSpaceOnUse">
<stop stop-color="#3B4497"/>
<stop offset="1" stop-color="#131631"/>
</linearGradient>
<linearGradient id="paint32_linear_651_746" x1="397.484" y1="390.968" x2="397.484" y2="404" gradientUnits="userSpaceOnUse">
<stop stop-color="#3B4497"/>
<stop offset="1" stop-color="#131631"/>
</linearGradient>
<linearGradient id="paint33_linear_651_746" x1="397.484" y1="390.968" x2="397.484" y2="404" gradientUnits="userSpaceOnUse">
<stop stop-color="#3B4497"/>
<stop offset="1" stop-color="#131631"/>
</linearGradient>
<linearGradient id="paint34_linear_651_746" x1="397.484" y1="390.968" x2="397.484" y2="404" gradientUnits="userSpaceOnUse">
<stop stop-color="#3B4497"/>
<stop offset="1" stop-color="#131631"/>
</linearGradient>
<linearGradient id="paint35_linear_651_746" x1="397.484" y1="390.968" x2="397.484" y2="404" gradientUnits="userSpaceOnUse">
<stop stop-color="#3B4497"/>
<stop offset="1" stop-color="#131631"/>
</linearGradient>
<linearGradient id="paint36_linear_651_746" x1="397.484" y1="390.968" x2="397.484" y2="404" gradientUnits="userSpaceOnUse">
<stop stop-color="#3B4497"/>
<stop offset="1" stop-color="#131631"/>
</linearGradient>
<linearGradient id="paint37_linear_651_746" x1="397.484" y1="390.968" x2="397.484" y2="404" gradientUnits="userSpaceOnUse">
<stop stop-color="#3B4497"/>
<stop offset="1" stop-color="#131631"/>
</linearGradient>
<linearGradient id="paint38_linear_651_746" x1="397.484" y1="390.968" x2="397.484" y2="404" gradientUnits="userSpaceOnUse">
<stop stop-color="#3B4497"/>
<stop offset="1" stop-color="#131631"/>
</linearGradient>
<linearGradient id="paint39_linear_651_746" x1="397.484" y1="390.968" x2="397.484" y2="404" gradientUnits="userSpaceOnUse">
<stop stop-color="#3B4497"/>
<stop offset="1" stop-color="#131631"/>
</linearGradient>
<linearGradient id="paint40_linear_651_746" x1="397.484" y1="390.968" x2="397.484" y2="404" gradientUnits="userSpaceOnUse">
<stop stop-color="#3B4497"/>
<stop offset="1" stop-color="#131631"/>
</linearGradient>
<linearGradient id="paint41_linear_651_746" x1="397.484" y1="390.968" x2="397.484" y2="404" gradientUnits="userSpaceOnUse">
<stop stop-color="#3B4497"/>
<stop offset="1" stop-color="#131631"/>
</linearGradient>
<linearGradient id="paint42_linear_651_746" x1="397.484" y1="390.968" x2="397.484" y2="404" gradientUnits="userSpaceOnUse">
<stop stop-color="#3B4497"/>
<stop offset="1" stop-color="#131631"/>
</linearGradient>
<linearGradient id="paint43_linear_651_746" x1="397.484" y1="390.968" x2="397.484" y2="404" gradientUnits="userSpaceOnUse">
<stop stop-color="#3B4497"/>
<stop offset="1" stop-color="#131631"/>
</linearGradient>
<linearGradient id="paint44_linear_651_746" x1="397.484" y1="390.968" x2="397.484" y2="404" gradientUnits="userSpaceOnUse">
<stop stop-color="#3B4497"/>
<stop offset="1" stop-color="#131631"/>
</linearGradient>
<linearGradient id="paint45_linear_651_746" x1="397.484" y1="390.968" x2="397.484" y2="404" gradientUnits="userSpaceOnUse">
<stop stop-color="#3B4497"/>
<stop offset="1" stop-color="#131631"/>
</linearGradient>
<linearGradient id="paint46_linear_651_746" x1="397.484" y1="390.968" x2="397.484" y2="404" gradientUnits="userSpaceOnUse">
<stop stop-color="#3B4497"/>
<stop offset="1" stop-color="#131631"/>
</linearGradient>
<linearGradient id="paint47_linear_651_746" x1="397.484" y1="390.968" x2="397.484" y2="404" gradientUnits="userSpaceOnUse">
<stop stop-color="#3B4497"/>
<stop offset="1" stop-color="#131631"/>
</linearGradient>
<linearGradient id="paint48_linear_651_746" x1="397.484" y1="390.968" x2="397.484" y2="404" gradientUnits="userSpaceOnUse">
<stop stop-color="#3B4497"/>
<stop offset="1" stop-color="#131631"/>
</linearGradient>
<linearGradient id="paint49_linear_651_746" x1="397.484" y1="390.968" x2="397.484" y2="404" gradientUnits="userSpaceOnUse">
<stop stop-color="#3B4497"/>
<stop offset="1" stop-color="#131631"/>
</linearGradient>
<linearGradient id="paint50_linear_651_746" x1="397.484" y1="390.968" x2="397.484" y2="404" gradientUnits="userSpaceOnUse">
<stop stop-color="#3B4497"/>
<stop offset="1" stop-color="#131631"/>
</linearGradient>
<linearGradient id="paint51_linear_651_746" x1="397.484" y1="390.968" x2="397.484" y2="404" gradientUnits="userSpaceOnUse">
<stop stop-color="#3B4497"/>
<stop offset="1" stop-color="#131631"/>
</linearGradient>
<linearGradient id="paint52_linear_651_746" x1="397.484" y1="390.968" x2="397.484" y2="404" gradientUnits="userSpaceOnUse">
<stop stop-color="#3B4497"/>
<stop offset="1" stop-color="#131631"/>
</linearGradient>
<linearGradient id="paint53_linear_651_746" x1="397.484" y1="390.968" x2="397.484" y2="404" gradientUnits="userSpaceOnUse">
<stop stop-color="#3B4497"/>
<stop offset="1" stop-color="#131631"/>
</linearGradient>
<linearGradient id="paint54_linear_651_746" x1="397.484" y1="390.968" x2="397.484" y2="404" gradientUnits="userSpaceOnUse">
<stop stop-color="#3B4497"/>
<stop offset="1" stop-color="#131631"/>
</linearGradient>
<linearGradient id="paint55_linear_651_746" x1="397.484" y1="390.968" x2="397.484" y2="404" gradientUnits="userSpaceOnUse">
<stop stop-color="#3B4497"/>
<stop offset="1" stop-color="#131631"/>
</linearGradient>
<linearGradient id="paint56_linear_651_746" x1="397.484" y1="390.968" x2="397.484" y2="404" gradientUnits="userSpaceOnUse">
<stop stop-color="#3B4497"/>
<stop offset="1" stop-color="#131631"/>
</linearGradient>
<linearGradient id="paint57_linear_651_746" x1="397.484" y1="390.968" x2="397.484" y2="404" gradientUnits="userSpaceOnUse">
<stop stop-color="#3B4497"/>
<stop offset="1" stop-color="#131631"/>
</linearGradient>
<linearGradient id="paint58_linear_651_746" x1="397.484" y1="390.968" x2="397.484" y2="404" gradientUnits="userSpaceOnUse">
<stop stop-color="#3B4497"/>
<stop offset="1" stop-color="#131631"/>
</linearGradient>
<linearGradient id="paint59_linear_651_746" x1="397.484" y1="390.968" x2="397.484" y2="404" gradientUnits="userSpaceOnUse">
<stop stop-color="#3B4497"/>
<stop offset="1" stop-color="#131631"/>
</linearGradient>
<linearGradient id="paint60_linear_651_746" x1="397.484" y1="390.968" x2="397.484" y2="404" gradientUnits="userSpaceOnUse">
<stop stop-color="#3B4497"/>
<stop offset="1" stop-color="#131631"/>
</linearGradient>
<linearGradient id="paint61_linear_651_746" x1="397.484" y1="390.968" x2="397.484" y2="404" gradientUnits="userSpaceOnUse">
<stop stop-color="#3B4497"/>
<stop offset="1" stop-color="#131631"/>
</linearGradient>
<linearGradient id="paint62_linear_651_746" x1="397.484" y1="390.968" x2="397.484" y2="404" gradientUnits="userSpaceOnUse">
<stop stop-color="#3B4497"/>
<stop offset="1" stop-color="#131631"/>
</linearGradient>
<linearGradient id="paint63_linear_651_746" x1="397.484" y1="390.968" x2="397.484" y2="404" gradientUnits="userSpaceOnUse">
<stop stop-color="#3B4497"/>
<stop offset="1" stop-color="#131631"/>
</linearGradient>
<linearGradient id="paint64_linear_651_746" x1="397.484" y1="390.968" x2="397.484" y2="404" gradientUnits="userSpaceOnUse">
<stop stop-color="#3B4497"/>
<stop offset="1" stop-color="#131631"/>
</linearGradient>
<linearGradient id="paint65_linear_651_746" x1="397.484" y1="390.968" x2="397.484" y2="404" gradientUnits="userSpaceOnUse">
<stop stop-color="#3B4497"/>
<stop offset="1" stop-color="#131631"/>
</linearGradient>
<linearGradient id="paint66_linear_651_746" x1="397.484" y1="390.968" x2="397.484" y2="404" gradientUnits="userSpaceOnUse">
<stop stop-color="#3B4497"/>
<stop offset="1" stop-color="#131631"/>
</linearGradient>
<linearGradient id="paint67_linear_651_746" x1="397.484" y1="390.968" x2="397.484" y2="404" gradientUnits="userSpaceOnUse">
<stop stop-color="#3B4497"/>
<stop offset="1" stop-color="#131631"/>
</linearGradient>
<linearGradient id="paint68_linear_651_746" x1="397.484" y1="390.968" x2="397.484" y2="404" gradientUnits="userSpaceOnUse">
<stop stop-color="#3B4497"/>
<stop offset="1" stop-color="#131631"/>
</linearGradient>
<linearGradient id="paint69_linear_651_746" x1="397.484" y1="390.968" x2="397.484" y2="404" gradientUnits="userSpaceOnUse">
<stop stop-color="#3B4497"/>
<stop offset="1" stop-color="#131631"/>
</linearGradient>
<linearGradient id="paint70_linear_651_746" x1="397.484" y1="390.968" x2="397.484" y2="404" gradientUnits="userSpaceOnUse">
<stop stop-color="#3B4497"/>
<stop offset="1" stop-color="#131631"/>
</linearGradient>
<linearGradient id="paint71_linear_651_746" x1="397.484" y1="390.968" x2="397.484" y2="404" gradientUnits="userSpaceOnUse">
<stop stop-color="#3B4497"/>
<stop offset="1" stop-color="#131631"/>
</linearGradient>
<linearGradient id="paint72_linear_651_746" x1="397.484" y1="390.968" x2="397.484" y2="404" gradientUnits="userSpaceOnUse">
<stop stop-color="#3B4497"/>
<stop offset="1" stop-color="#131631"/>
</linearGradient>
<linearGradient id="paint73_linear_651_746" x1="397.484" y1="390.968" x2="397.484" y2="404" gradientUnits="userSpaceOnUse">
<stop stop-color="#3B4497"/>
<stop offset="1" stop-color="#131631"/>
</linearGradient>
<linearGradient id="paint74_linear_651_746" x1="397.484" y1="390.968" x2="397.484" y2="404" gradientUnits="userSpaceOnUse">
<stop stop-color="#3B4497"/>
<stop offset="1" stop-color="#131631"/>
</linearGradient>
<linearGradient id="paint75_linear_651_746" x1="397.484" y1="390.968" x2="397.484" y2="404" gradientUnits="userSpaceOnUse">
<stop stop-color="#3B4497"/>
<stop offset="1" stop-color="#131631"/>
</linearGradient>
<linearGradient id="paint76_linear_651_746" x1="397.484" y1="390.968" x2="397.484" y2="404" gradientUnits="userSpaceOnUse">
<stop stop-color="#3B4497"/>
<stop offset="1" stop-color="#131631"/>
</linearGradient>
<linearGradient id="paint77_linear_651_746" x1="397.484" y1="390.968" x2="397.484" y2="404" gradientUnits="userSpaceOnUse">
<stop stop-color="#3B4497"/>
<stop offset="1" stop-color="#131631"/>
</linearGradient>
<linearGradient id="paint78_linear_651_746" x1="397.484" y1="390.968" x2="397.484" y2="404" gradientUnits="userSpaceOnUse">
<stop stop-color="#3B4497"/>
<stop offset="1" stop-color="#131631"/>
</linearGradient>
<linearGradient id="paint79_linear_651_746" x1="397.484" y1="390.968" x2="397.484" y2="404" gradientUnits="userSpaceOnUse">
<stop stop-color="#3B4497"/>
<stop offset="1" stop-color="#131631"/>
</linearGradient>
<linearGradient id="paint80_linear_651_746" x1="397.484" y1="390.968" x2="397.484" y2="404" gradientUnits="userSpaceOnUse">
<stop stop-color="#3B4497"/>
<stop offset="1" stop-color="#131631"/>
</linearGradient>
<linearGradient id="paint81_linear_651_746" x1="397.484" y1="390.968" x2="397.484" y2="404" gradientUnits="userSpaceOnUse">
<stop stop-color="#3B4497"/>
<stop offset="1" stop-color="#131631"/>
</linearGradient>
<linearGradient id="paint82_linear_651_746" x1="397.484" y1="390.968" x2="397.484" y2="404" gradientUnits="userSpaceOnUse">
<stop stop-color="#3B4497"/>
<stop offset="1" stop-color="#131631"/>
</linearGradient>
<linearGradient id="paint83_linear_651_746" x1="397.484" y1="390.968" x2="397.484" y2="404" gradientUnits="userSpaceOnUse">
<stop stop-color="#3B4497"/>
<stop offset="1" stop-color="#131631"/>
</linearGradient>
<linearGradient id="paint84_linear_651_746" x1="397.484" y1="390.968" x2="397.484" y2="404" gradientUnits="userSpaceOnUse">
<stop stop-color="#3B4497"/>
<stop offset="1" stop-color="#131631"/>
</linearGradient>
<linearGradient id="paint85_linear_651_746" x1="397.484" y1="390.968" x2="397.484" y2="404" gradientUnits="userSpaceOnUse">
<stop stop-color="#3B4497"/>
<stop offset="1" stop-color="#131631"/>
</linearGradient>
<linearGradient id="paint86_linear_651_746" x1="397.484" y1="390.968" x2="397.484" y2="404" gradientUnits="userSpaceOnUse">
<stop stop-color="#3B4497"/>
<stop offset="1" stop-color="#131631"/>
</linearGradient>
<linearGradient id="paint87_linear_651_746" x1="397.484" y1="390.968" x2="397.484" y2="404" gradientUnits="userSpaceOnUse">
<stop stop-color="#3B4497"/>
<stop offset="1" stop-color="#131631"/>
</linearGradient>
<linearGradient id="paint88_linear_651_746" x1="397.484" y1="390.968" x2="397.484" y2="404" gradientUnits="userSpaceOnUse">
<stop stop-color="#3B4497"/>
<stop offset="1" stop-color="#131631"/>
</linearGradient>
<linearGradient id="paint89_linear_651_746" x1="397.484" y1="390.968" x2="397.484" y2="404" gradientUnits="userSpaceOnUse">
<stop stop-color="#3B4497"/>
<stop offset="1" stop-color="#131631"/>
</linearGradient>
<linearGradient id="paint90_linear_651_746" x1="397.484" y1="390.968" x2="397.484" y2="404" gradientUnits="userSpaceOnUse">
<stop stop-color="#3B4497"/>
<stop offset="1" stop-color="#131631"/>
</linearGradient>
<linearGradient id="paint91_linear_651_746" x1="397.484" y1="390.968" x2="397.484" y2="404" gradientUnits="userSpaceOnUse">
<stop stop-color="#3B4497"/>
<stop offset="1" stop-color="#131631"/>
</linearGradient>
<linearGradient id="paint92_linear_651_746" x1="397.484" y1="390.968" x2="397.484" y2="404" gradientUnits="userSpaceOnUse">
<stop stop-color="#3B4497"/>
<stop offset="1" stop-color="#131631"/>
</linearGradient>
<linearGradient id="paint93_linear_651_746" x1="397.484" y1="390.968" x2="397.484" y2="404" gradientUnits="userSpaceOnUse">
<stop stop-color="#3B4497"/>
<stop offset="1" stop-color="#131631"/>
</linearGradient>
<linearGradient id="paint94_linear_651_746" x1="397.484" y1="390.968" x2="397.484" y2="404" gradientUnits="userSpaceOnUse">
<stop stop-color="#3B4497"/>
<stop offset="1" stop-color="#131631"/>
</linearGradient>
<linearGradient id="paint95_linear_651_746" x1="397.484" y1="390.968" x2="397.484" y2="404" gradientUnits="userSpaceOnUse">
<stop stop-color="#3B4497"/>
<stop offset="1" stop-color="#131631"/>
</linearGradient>
<linearGradient id="paint96_linear_651_746" x1="397.484" y1="390.968" x2="397.484" y2="404" gradientUnits="userSpaceOnUse">
<stop stop-color="#3B4497"/>
<stop offset="1" stop-color="#131631"/>
</linearGradient>
<linearGradient id="paint97_linear_651_746" x1="397.484" y1="390.968" x2="397.484" y2="404" gradientUnits="userSpaceOnUse">
<stop stop-color="#3B4497"/>
<stop offset="1" stop-color="#131631"/>
</linearGradient>
<linearGradient id="paint98_linear_651_746" x1="397.484" y1="390.968" x2="397.484" y2="404" gradientUnits="userSpaceOnUse">
<stop stop-color="#3B4497"/>
<stop offset="1" stop-color="#131631"/>
</linearGradient>
<linearGradient id="paint99_linear_651_746" x1="397.484" y1="390.968" x2="397.484" y2="404" gradientUnits="userSpaceOnUse">
<stop stop-color="#3B4497"/>
<stop offset="1" stop-color="#131631"/>
</linearGradient>
<linearGradient id="paint100_linear_651_746" x1="397.484" y1="390.968" x2="397.484" y2="404" gradientUnits="userSpaceOnUse">
<stop stop-color="#3B4497"/>
<stop offset="1" stop-color="#131631"/>
</linearGradient>
<linearGradient id="paint101_linear_651_746" x1="397.484" y1="390.968" x2="397.484" y2="404" gradientUnits="userSpaceOnUse">
<stop stop-color="#3B4497"/>
<stop offset="1" stop-color="#131631"/>
</linearGradient>
<linearGradient id="paint102_linear_651_746" x1="397.484" y1="390.968" x2="397.484" y2="404" gradientUnits="userSpaceOnUse">
<stop stop-color="#3B4497"/>
<stop offset="1" stop-color="#131631"/>
</linearGradient>
<linearGradient id="paint103_linear_651_746" x1="397.484" y1="390.968" x2="397.484" y2="404" gradientUnits="userSpaceOnUse">
<stop stop-color="#3B4497"/>
<stop offset="1" stop-color="#131631"/>
</linearGradient>
<linearGradient id="paint104_linear_651_746" x1="397.484" y1="390.968" x2="397.484" y2="404" gradientUnits="userSpaceOnUse">
<stop stop-color="#3B4497"/>
<stop offset="1" stop-color="#131631"/>
</linearGradient>
<linearGradient id="paint105_linear_651_746" x1="397.484" y1="390.968" x2="397.484" y2="404" gradientUnits="userSpaceOnUse">
<stop stop-color="#3B4497"/>
<stop offset="1" stop-color="#131631"/>
</linearGradient>
<linearGradient id="paint106_linear_651_746" x1="397.484" y1="390.968" x2="397.484" y2="404" gradientUnits="userSpaceOnUse">
<stop stop-color="#3B4497"/>
<stop offset="1" stop-color="#131631"/>
</linearGradient>
<linearGradient id="paint107_linear_651_746" x1="397.484" y1="390.968" x2="397.484" y2="404" gradientUnits="userSpaceOnUse">
<stop stop-color="#3B4497"/>
<stop offset="1" stop-color="#131631"/>
</linearGradient>
<linearGradient id="paint108_linear_651_746" x1="397.484" y1="390.968" x2="397.484" y2="404" gradientUnits="userSpaceOnUse">
<stop stop-color="#3B4497"/>
<stop offset="1" stop-color="#131631"/>
</linearGradient>
<linearGradient id="paint109_linear_651_746" x1="397.484" y1="390.968" x2="397.484" y2="404" gradientUnits="userSpaceOnUse">
<stop stop-color="#3B4497"/>
<stop offset="1" stop-color="#131631"/>
</linearGradient>
<linearGradient id="paint110_linear_651_746" x1="397.484" y1="390.968" x2="397.484" y2="404" gradientUnits="userSpaceOnUse">
<stop stop-color="#3B4497"/>
<stop offset="1" stop-color="#131631"/>
</linearGradient>
<linearGradient id="paint111_linear_651_746" x1="397.484" y1="390.968" x2="397.484" y2="404" gradientUnits="userSpaceOnUse">
<stop stop-color="#3B4497"/>
<stop offset="1" stop-color="#131631"/>
</linearGradient>
<linearGradient id="paint112_linear_651_746" x1="397.484" y1="390.968" x2="397.484" y2="404" gradientUnits="userSpaceOnUse">
<stop stop-color="#3B4497"/>
<stop offset="1" stop-color="#131631"/>
</linearGradient>
<linearGradient id="paint113_linear_651_746" x1="397.484" y1="390.968" x2="397.484" y2="404" gradientUnits="userSpaceOnUse">
<stop stop-color="#3B4497"/>
<stop offset="1" stop-color="#131631"/>
</linearGradient>
<linearGradient id="paint114_linear_651_746" x1="397.484" y1="390.968" x2="397.484" y2="404" gradientUnits="userSpaceOnUse">
<stop stop-color="#3B4497"/>
<stop offset="1" stop-color="#131631"/>
</linearGradient>
<linearGradient id="paint115_linear_651_746" x1="397.484" y1="390.968" x2="397.484" y2="404" gradientUnits="userSpaceOnUse">
<stop stop-color="#3B4497"/>
<stop offset="1" stop-color="#131631"/>
</linearGradient>
<linearGradient id="paint116_linear_651_746" x1="397.484" y1="390.968" x2="397.484" y2="404" gradientUnits="userSpaceOnUse">
<stop stop-color="#3B4497"/>
<stop offset="1" stop-color="#131631"/>
</linearGradient>
<linearGradient id="paint117_linear_651_746" x1="397.484" y1="390.968" x2="397.484" y2="404" gradientUnits="userSpaceOnUse">
<stop stop-color="#3B4497"/>
<stop offset="1" stop-color="#131631"/>
</linearGradient>
<linearGradient id="paint118_linear_651_746" x1="397.484" y1="390.968" x2="397.484" y2="404" gradientUnits="userSpaceOnUse">
<stop stop-color="#3B4497"/>
<stop offset="1" stop-color="#131631"/>
</linearGradient>
<linearGradient id="paint119_linear_651_746" x1="397.484" y1="390.968" x2="397.484" y2="404" gradientUnits="userSpaceOnUse">
<stop stop-color="#3B4497"/>
<stop offset="1" stop-color="#131631"/>
</linearGradient>
<linearGradient id="paint120_linear_651_746" x1="397.484" y1="390.968" x2="397.484" y2="404" gradientUnits="userSpaceOnUse">
<stop stop-color="#3B4497"/>
<stop offset="1" stop-color="#131631"/>
</linearGradient>
</defs>
</svg>
